<svg width="25.714" height="25.714" viewBox="0.000000 -49.285714 25.714286 25.714286" xmlns="http://www.w3.org/2000/svg"><path fill="#fff" d="M24.291-49.286c.391 0 .725.14 1.004.419.279.279.419.614.419 1.004v22.868c0 .391-.14.725-.419 1.004a1.37 1.37 0 0 1-1.004.419h-6.546v-9.961h3.331l.502-3.884h-3.834v-2.478c0-.625.131-1.094.393-1.406.262-.313.773-.469 1.532-.469l2.042-.017v-3.465c-.703-.1-1.696-.151-2.98-.151-1.518 0-2.732.446-3.641 1.339-.91.893-1.364 2.154-1.364 3.783v2.863h-3.348v3.884h3.348v9.961H1.421c-.391 0-.725-.14-1.004-.419a1.37 1.37 0 0 1-.419-1.004v-22.868c0-.391.14-.725.419-1.004a1.37 1.37 0 0 1 1.004-.419zm0 0"/></svg>