<svg width="25.714" height="25.714" viewBox="0.000000 -49.285714 25.714286 25.714286" xmlns="http://www.w3.org/2000/svg"><path  fill="#fff" d="M17.143-36.429c0-1.183-.419-2.193-1.256-3.03-.837-.837-1.847-1.256-3.03-1.256-1.183 0-2.193.419-3.03 1.256-.837.837-1.256 1.847-1.256 3.03 0 1.183.419 2.193 1.256 3.03.837.837 1.847 1.256 3.03 1.256 1.183 0 2.193-.419 3.03-1.256.837-.837 1.256-1.847 1.256-3.03zm2.31 0c0 1.83-.642 3.387-1.925 4.671-1.283 1.283-2.84 1.925-4.671 1.925-1.83 0-3.387-.642-4.671-1.925-1.283-1.283-1.925-2.84-1.925-4.671 0-1.83.642-3.387 1.925-4.671 1.283-1.283 2.84-1.925 4.671-1.925 1.83 0 3.387.642 4.671 1.925 1.283 1.283 1.925 2.84 1.925 4.671zm1.808-6.864c0 .424-.151.787-.452 1.088-.301.301-.664.452-1.088.452-.424 0-.787-.151-1.088-.452-.301-.301-.452-.664-.452-1.088 0-.424.151-.787.452-1.088.301-.301.664-.452 1.088-.452.424 0 .787.151 1.088.452.301.301.452.664.452 1.088zm-8.404-3.683l-1.281-.008c-.776-.006-1.364-.006-1.766 0-.402.006-.94.022-1.616.05-.675.028-1.25.084-1.724.167-.474.084-.873.187-1.197.31-.558.223-1.049.547-1.473.971-.424.424-.748.915-.971 1.473-.123.324-.226.723-.31 1.197-.084.474-.14 1.049-.167 1.724-.028.675-.045 1.214-.05 1.616-.006.402-.006.991 0 1.766l.008 1.281-.008 1.281c-.006.776-.006 1.364 0 1.766.006.402.022.94.05 1.616.028.675.084 1.25.167 1.724.084.474.187.873.31 1.197.223.558.547 1.049.971 1.473.424.424.915.748 1.473.971.324.123.723.226 1.197.31.474.084 1.049.14 1.724.167.675.028 1.214.045 1.616.05.402.006.991.006 1.766 0l1.281-.008 1.281.008c.776.006 1.364.006 1.766 0 .402-.006.94-.022 1.616-.05.675-.028 1.25-.084 1.724-.167.474-.084.873-.187 1.197-.31.558-.223 1.049-.547 1.473-.971.424-.424.748-.915.971-1.473.123-.324.226-.723.31-1.197.084-.474.14-1.049.167-1.724.028-.675.045-1.214.05-1.616.006-.402.006-.991 0-1.766l-.008-1.281.008-1.281c.006-.776.006-1.364 0-1.766-.006-.402-.022-.94-.05-1.616-.028-.675-.084-1.25-.167-1.724-.084-.474-.187-.873-.31-1.197-.223-.558-.547-1.049-.971-1.473-.424-.424-.915-.748-1.473-.971-.324-.123-.723-.226-1.197-.31-.474-.084-1.049-.14-1.724-.167-.675-.028-1.214-.045-1.616-.05-.402-.006-.991-.006-1.766 0l-1.281.008zm12.857 10.547c0 2.556-.028 4.325-.084 5.307-.112 2.321-.804 4.118-2.076 5.391-1.272 1.272-3.069 1.964-5.391 2.076-.982.056-2.751.084-5.307.084-2.556 0-4.325-.028-5.307-.084-2.321-.112-4.118-.804-5.391-2.076-1.272-1.272-1.964-3.069-2.076-5.391-.056-.982-.084-2.751-.084-5.307 0-2.556.028-4.325.084-5.307.112-2.321.804-4.118 2.076-5.391 1.272-1.272 3.069-1.964 5.391-2.076.982-.056 2.751-.084 5.307-.084 2.556 0 4.325.028 5.307.084 2.321.112 4.118.804 5.391 2.076 1.272 1.272 1.964 3.069 2.076 5.391.056.982.084 2.751.084 5.307zm0 0"/></svg>