<svg width="26.384" height="21.429" viewBox="0.736607 -42.857143 26.383929 21.428571" xmlns="http://www.w3.org/2000/svg"><path fill="#fff" d="M27.121-40.313a11.335 11.335 0 0 1-2.712 2.796 15.36 15.36 0 0 1-.619 5.047 15.698 15.698 0 0 1-1.934 4.16c-.865 1.328-1.895 2.503-3.089 3.524s-2.634 1.836-4.319 2.444c-1.685.608-3.488.912-5.407.912-3.025 0-5.792-.809-8.304-2.427.391.045.826.067 1.306.067 2.511 0 4.749-.77 6.713-2.31a5.265 5.265 0 0 1-3.147-1.08 5.288 5.288 0 0 1-1.908-2.67c.368.056.709.084 1.021.084.48 0 .954-.061 1.423-.184a5.319 5.319 0 0 1-3.105-1.867c-.82-.988-1.23-2.134-1.23-3.44v-.067a5.36 5.36 0 0 0 2.444.686 5.398 5.398 0 0 1-1.758-1.925 5.271 5.271 0 0 1-.653-2.578 5.3 5.3 0 0 1 .737-2.729 15.329 15.329 0 0 0 4.93 3.993 15.068 15.068 0 0 0 6.219 1.666 6.025 6.025 0 0 1-.134-1.239c0-1.496.527-2.771 1.582-3.825 1.055-1.055 2.33-1.582 3.825-1.582 1.563 0 2.879.569 3.951 1.708a10.6 10.6 0 0 0 3.432-1.306c-.413 1.283-1.205 2.277-2.377 2.98a10.801 10.801 0 0 0 3.114-.837zm0 0"/></svg>