<svg width="26.384" height="21.429" viewBox="0.736607 -42.857143 26.383929 21.428571" xmlns="http://www.w3.org/2000/svg"><path fill="#fff" d="M27.121-40.313c-.748 1.094-1.652 2.026-2.712 2.796.011.156.017.391.017.703 0 1.451-.212 2.899-.636 4.344-.424 1.445-1.069 2.832-1.934 4.16-.865 1.328-1.895 2.503-3.089 3.524s-2.634 1.836-4.319 2.444c-1.685.608-3.488.912-5.407.912-3.025 0-5.792-.809-8.304-2.427.391.045.826.067 1.306.067 2.511 0 4.749-.77 6.713-2.31-1.172-.022-2.221-.382-3.147-1.08-.926-.698-1.563-1.588-1.908-2.67.368.056.709.084 1.021.084.48 0 .954-.061 1.423-.184-1.25-.257-2.285-.879-3.105-1.867-.82-.988-1.23-2.134-1.23-3.44v-.067c.759.424 1.574.653 2.444.686-.737-.491-1.323-1.133-1.758-1.925-.435-.792-.653-1.652-.653-2.578 0-.982.246-1.892.737-2.729 1.35 1.663 2.994 2.994 4.93 3.993 1.936.999 4.009 1.554 6.219 1.666-.089-.424-.134-.837-.134-1.239 0-1.496.527-2.771 1.582-3.825 1.055-1.055 2.33-1.582 3.825-1.582 1.563 0 2.879.569 3.951 1.708 1.217-.234 2.36-.67 3.432-1.306-.413 1.283-1.205 2.277-2.377 2.98 1.038-.112 2.076-.391 3.114-.837zm0 0"/></svg>